<svg xmlns="http://www.w3.org/2000/svg">
  <symbol id="icon-menu" viewBox="0 0 24 24"><path d="M4 7h16M4 12h16M4 17h16" /></symbol>
  <symbol id="icon-chat" viewBox="0 0 24 24"><path d="M5 5h14v11H9l-4 3V5Z" /><path d="M9 9h6M9 12h4" /></symbol>
  <symbol id="icon-sources" viewBox="0 0 24 24"><path d="m12 3 8 4-8 4-8-4 8-4Z" /><path d="m4 12 8 4 8-4M4 17l8 4 8-4" /></symbol>
  <symbol id="icon-database" viewBox="0 0 24 24"><ellipse cx="12" cy="5" rx="8" ry="3" /><path d="M4 5v6c0 1.7 3.6 3 8 3s8-1.3 8-3V5M4 11v6c0 1.7 3.6 3 8 3s8-1.3 8-3v-6" /></symbol>
  <symbol id="icon-context" viewBox="0 0 24 24"><path d="M5 4h14v16H5zM8 8h8M8 12h8M8 16h5" /></symbol>
  <symbol id="icon-close" viewBox="0 0 24 24"><path d="m6 6 12 12M18 6 6 18" /></symbol>
  <symbol id="icon-plus" viewBox="0 0 24 24"><path d="M12 5v14M5 12h14" /></symbol>
  <symbol id="icon-send" viewBox="0 0 24 24"><path d="m4 4 17 8-17 8 4-8-4-8Z" /><path d="M8 12h13" /></symbol>
  <symbol id="icon-lock" viewBox="0 0 24 24"><rect x="5" y="10" width="14" height="10" rx="2" /><path d="M8 10V7a4 4 0 0 1 8 0v3" /></symbol>
  <symbol id="icon-refresh" viewBox="0 0 24 24"><path d="M20 7v5h-5M4 17v-5h5" /><path d="M18 12a6 6 0 0 0-10.2-4.2L4 12m2 0a6 6 0 0 0 10.2 4.2L20 12" /></symbol>
  <symbol id="icon-workspace" viewBox="0 0 24 24"><rect x="3" y="4" width="18" height="13" rx="2" /><path d="M8 21h8M12 17v4" /></symbol>
  <symbol id="icon-settings" viewBox="0 0 24 24"><circle cx="12" cy="12" r="3" /><path d="M19.4 15a1.7 1.7 0 0 0 .3 1.9l.1.1-2.8 2.8-.1-.1a1.7 1.7 0 0 0-1.9-.3 1.7 1.7 0 0 0-1 1.6v.2h-4V21a1.7 1.7 0 0 0-1-1.6 1.7 1.7 0 0 0-1.9.3l-.1.1L4.2 17l.1-.1a1.7 1.7 0 0 0 .3-1.9A1.7 1.7 0 0 0 3 14H2.8v-4H3a1.7 1.7 0 0 0 1.6-1 1.7 1.7 0 0 0-.3-1.9L4.2 7 7 4.2l.1.1A1.7 1.7 0 0 0 9 4.6 1.7 1.7 0 0 0 10 3v-.2h4V3a1.7 1.7 0 0 0 1 1.6 1.7 1.7 0 0 0 1.9-.3l.1-.1L19.8 7l-.1.1a1.7 1.7 0 0 0-.3 1.9 1.7 1.7 0 0 0 1.6 1h.2v4H21a1.7 1.7 0 0 0-1.6 1Z" /></symbol>
  <symbol id="icon-layers" viewBox="0 0 24 24"><path d="m12 3 9 5-9 5-9-5 9-5Z" /><path d="m3 12 9 5 9-5M3 16l9 5 9-5" /></symbol>
  <symbol id="icon-documents" viewBox="0 0 24 24"><path d="M8 3h8l4 4v12H8V3Z" /><path d="M16 3v5h4M4 7v14h12M11 12h6M11 16h6" /></symbol>
  <symbol id="icon-file-text" viewBox="0 0 24 24"><path d="M6 3h8l4 4v14H6V3Z" /><path d="M14 3v5h4M9 12h6M9 16h6" /></symbol>
  <symbol id="icon-fingerprint" viewBox="0 0 24 24"><path d="M5 12a7 7 0 0 1 14 0M8 12a4 4 0 0 1 8 0v2M12 12v4a5 5 0 0 1-2 4M6 15a8 8 0 0 1-1 4M18 15a10 10 0 0 1-2 6" /></symbol>
  <symbol id="icon-copy" viewBox="0 0 24 24"><rect x="8" y="8" width="12" height="12" rx="2" /><path d="M16 8V6a2 2 0 0 0-2-2H6a2 2 0 0 0-2 2v8a2 2 0 0 0 2 2h2" /></symbol>
  <symbol id="icon-search-index" viewBox="0 0 24 24"><circle cx="10.5" cy="10.5" r="6.5" /><path d="m15.5 15.5 5 5M8 9h5M8 12h3" /></symbol>
  <symbol id="icon-clock" viewBox="0 0 24 24"><circle cx="12" cy="12" r="9" /><path d="M12 7v6l4 2" /></symbol>
  <symbol id="icon-calendar" viewBox="0 0 24 24"><rect x="3" y="5" width="18" height="16" rx="2" /><path d="M8 3v4M16 3v4M3 10h18M8 14h.01M12 14h.01M16 14h.01M8 17h.01M12 17h.01" /></symbol>
  <symbol id="icon-users" viewBox="0 0 24 24"><circle cx="9" cy="8" r="3" /><path d="M3 20v-2a6 6 0 0 1 12 0v2M16 5.5a3 3 0 0 1 0 5.8M17 14a5 5 0 0 1 4 4.9V20" /></symbol>
  <symbol id="icon-cube" viewBox="0 0 24 24"><path d="m12 3 8 4.5v9L12 21l-8-4.5v-9L12 3Z" /><path d="m4 7.5 8 4.5 8-4.5M12 12v9" /></symbol>
  <symbol id="icon-trash" viewBox="0 0 24 24"><path d="M4 7h16M9 3h6l1 4H8l1-4ZM7 7l1 14h8l1-14M10 11v6M14 11v6" /></symbol>
  <symbol id="icon-sparkles" viewBox="0 0 24 24"><path d="M12 2c.8 5.3 4 8.5 9 9-5 .5-8.2 3.7-9 9-.8-5.3-4-8.5-9-9 5-.5 8.2-3.7 9-9Z" /><path d="M19 2v4M17 4h4M5 18v4M3 20h4" /></symbol>
  <symbol id="icon-chevron-down" viewBox="0 0 24 24"><path d="m7 9 5 5 5-5" /></symbol>
  <symbol id="icon-shield" viewBox="0 0 24 24"><path d="M12 3 20 6v5c0 5-3.2 8.4-8 10-4.8-1.6-8-5-8-10V6l8-3Z" /><path d="m9 12 2 2 4-5" /></symbol>
  <symbol id="icon-list" viewBox="0 0 24 24"><path d="M9 6h11M9 12h11M9 18h11M4 6h.01M4 12h.01M4 18h.01" /></symbol>
  <!-- Discord and WhatsApp paths are from Simple Icons (CC0-1.0). -->
  <symbol id="icon-discord" viewBox="0 0 24 24"><path fill="currentColor" d="M20.317 4.37a19.8 19.8 0 0 0-4.885-1.515.074.074 0 0 0-.079.037c-.211.375-.445.865-.608 1.25a18.3 18.3 0 0 0-5.487 0 12.3 12.3 0 0 0-.618-1.25.077.077 0 0 0-.078-.037A19.7 19.7 0 0 0 3.677 4.37a.07.07 0 0 0-.032.028C.533 9.046-.319 13.58.1 18.058a.082.082 0 0 0 .031.056c2.053 1.508 4.041 2.423 5.993 3.03a.078.078 0 0 0 .084-.028c.462-.63.873-1.295 1.226-1.994a.076.076 0 0 0-.042-.106 12.3 12.3 0 0 1-1.872-.892.077.077 0 0 1-.008-.128c.126-.094.252-.192.372-.291a.074.074 0 0 1 .078-.011c3.928 1.793 8.18 1.793 12.061 0a.074.074 0 0 1 .079.01c.12.099.246.198.373.292a.077.077 0 0 1-.007.128c-.598.342-1.22.644-1.873.89a.077.077 0 0 0-.04.107c.36.698.772 1.363 1.225 1.993a.076.076 0 0 0 .084.029c1.961-.607 3.95-1.522 6.002-3.03a.077.077 0 0 0 .031-.055c.501-5.177-.838-9.674-3.548-13.66a.061.061 0 0 0-.031-.028ZM8.02 15.331c-1.183 0-2.157-1.086-2.157-2.419s.956-2.419 2.157-2.419c1.21 0 2.176 1.096 2.157 2.419 0 1.333-.956 2.419-2.157 2.419Zm7.975 0c-1.183 0-2.157-1.086-2.157-2.419s.955-2.419 2.157-2.419c1.21 0 2.176 1.096 2.157 2.419 0 1.333-.946 2.419-2.157 2.419Z" /></symbol>
  <symbol id="icon-whatsapp" viewBox="0 0 24 24"><path fill="currentColor" d="M17.472 14.382c-.297-.149-1.758-.867-2.03-.967-.273-.099-.471-.148-.67.15-.197.297-.767.966-.94 1.164-.173.199-.347.223-.644.075-.297-.15-1.255-.463-2.39-1.475-.883-.788-1.48-1.761-1.653-2.059-.173-.297-.018-.458.13-.606.134-.133.298-.347.446-.52.149-.174.198-.298.298-.497.099-.198.05-.371-.025-.52-.075-.149-.669-1.612-.916-2.207-.242-.579-.487-.5-.669-.51-.173-.008-.371-.01-.57-.01-.198 0-.52.074-.792.372-.272.297-1.04 1.016-1.04 2.479 0 1.462 1.065 2.875 1.213 3.074.149.198 2.096 3.2 5.077 4.487.709.306 1.262.489 1.694.625.712.227 1.36.195 1.871.118.571-.085 1.758-.719 2.006-1.413.248-.694.248-1.289.173-1.413-.074-.124-.272-.198-.57-.347m-5.421 7.403h-.004a9.87 9.87 0 0 1-5.031-1.378l-.361-.214-3.741.982.998-3.648-.235-.374a9.86 9.86 0 0 1-1.51-5.26c.001-5.45 4.436-9.884 9.888-9.884 2.64 0 5.122 1.03 6.988 2.898a9.825 9.825 0 0 1 2.893 6.994c-.003 5.45-4.437 9.884-9.885 9.884m8.413-18.297A11.815 11.815 0 0 0 12.05 0C5.495 0 .16 5.335.157 11.892c0 2.096.547 4.142 1.588 5.945L.057 24l6.305-1.654a11.882 11.882 0 0 0 5.683 1.448h.005c6.554 0 11.89-5.335 11.893-11.893a11.821 11.821 0 0 0-3.48-8.413Z" /></symbol>
</svg>
